{
	"asset":{
		"generator":"Khronos glTF Blender I/O v4.5.48",
		"version":"2.0"
	},
	"scene":0,
	"scenes":[
		{
			"name":"Scene",
			"nodes":[
				3
			]
		}
	],
	"nodes":[
		{
			"mesh":0,
			"name":"door_glass.001"
		},
		{
			"mesh":1,
			"name":"handle",
			"translation":[
				0.9124946594238281,
				-0.9854511022567749,
				0.5844357013702393
			]
		},
		{
			"mesh":2,
			"name":"mirror",
			"translation":[
				0.5201082229614258,
				1.035123586654663,
				0.6033310890197754
			]
		},
		{
			"children":[
				0,
				1,
				2
			],
			"mesh":3,
			"name":"door_metal.001",
			"translation":[
				-0.5262932777404785,
				-0.46190130710601807,
				-0.5292865037918091
			]
		}
	],
	"materials":[
		{
			"alphaMode":"BLEND",
			"doubleSided":true,
			"name":"Material.011",
			"pbrMetallicRoughness":{
				"baseColorFactor":[
					0.04247855022549629,
					0.7153486013412476,
					0.8001648187637329,
					0.25
				],
				"metallicFactor":0.10000000149011612,
				"roughnessFactor":0
			}
		},
		{
			"doubleSided":true,
			"name":"Material.010",
			"pbrMetallicRoughness":{
				"baseColorFactor":[
					0.20250332355499268,
					0.20250332355499268,
					0.20250332355499268,
					1
				],
				"metallicFactor":0,
				"roughnessFactor":0.5
			}
		}
	],
	"meshes":[
		{
			"name":"Mesh",
			"primitives":[
				{
					"attributes":{
						"POSITION":0,
						"NORMAL":1,
						"TEXCOORD_0":2
					},
					"indices":3,
					"material":0
				}
			]
		},
		{
			"name":"Mesh",
			"primitives":[
				{
					"attributes":{
						"POSITION":4,
						"NORMAL":5,
						"TEXCOORD_0":6
					},
					"indices":7
				}
			]
		},
		{
			"name":"Cube.001",
			"primitives":[
				{
					"attributes":{
						"POSITION":8,
						"NORMAL":9,
						"TEXCOORD_0":10
					},
					"indices":11
				}
			]
		},
		{
			"name":"canopy_door_metal.002",
			"primitives":[
				{
					"attributes":{
						"POSITION":12,
						"NORMAL":13,
						"TEXCOORD_0":14
					},
					"indices":15,
					"material":1
				}
			]
		}
	],
	"accessors":[
		{
			"bufferView":0,
			"componentType":5126,
			"count":2112,
			"max":[
				1.076537013053894,
				1.010233759880066,
				0.7984813451766968
			],
			"min":[
				-0.03152129426598549,
				-0.9304742217063904,
				-0.050413139164447784
			],
			"type":"VEC3"
		},
		{
			"bufferView":1,
			"componentType":5126,
			"count":2112,
			"type":"VEC3"
		},
		{
			"bufferView":2,
			"componentType":5126,
			"count":2112,
			"type":"VEC2"
		},
		{
			"bufferView":3,
			"componentType":5123,
			"count":3168,
			"type":"SCALAR"
		},
		{
			"bufferView":4,
			"componentType":5126,
			"count":4469,
			"max":[
				0.12360181659460068,
				1.129989504814148,
				-0.01018556673079729
			],
			"min":[
				-0.07826439291238785,
				-0.022952290251851082,
				-0.586480975151062
			],
			"type":"VEC3"
		},
		{
			"bufferView":5,
			"componentType":5126,
			"count":4469,
			"type":"VEC3"
		},
		{
			"bufferView":6,
			"componentType":5126,
			"count":4469,
			"type":"VEC2"
		},
		{
			"bufferView":7,
			"componentType":5123,
			"count":6912,
			"type":"SCALAR"
		},
		{
			"bufferView":8,
			"componentType":5126,
			"count":564,
			"max":[
				0.3630558252334595,
				0.028287410736083984,
				0.028287403285503387
			],
			"min":[
				-0.350685715675354,
				-0.028287410736083984,
				-0.3839111328125
			],
			"type":"VEC3"
		},
		{
			"bufferView":9,
			"componentType":5126,
			"count":564,
			"type":"VEC3"
		},
		{
			"bufferView":10,
			"componentType":5126,
			"count":564,
			"type":"VEC2"
		},
		{
			"bufferView":11,
			"componentType":5123,
			"count":936,
			"type":"SCALAR"
		},
		{
			"bufferView":12,
			"componentType":5126,
			"count":568,
			"max":[
				1.1172884702682495,
				1.1202447414398193,
				0.8401592969894409
			],
			"min":[
				-0.0722728818655014,
				-1.0382914543151855,
				-0.08377103507518768
			],
			"type":"VEC3"
		},
		{
			"bufferView":13,
			"componentType":5126,
			"count":568,
			"type":"VEC3"
		},
		{
			"bufferView":14,
			"componentType":5126,
			"count":568,
			"type":"VEC2"
		},
		{
			"bufferView":15,
			"componentType":5123,
			"count":768,
			"type":"SCALAR"
		}
	],
	"bufferViews":[
		{
			"buffer":0,
			"byteLength":25344,
			"byteOffset":0,
			"target":34962
		},
		{
			"buffer":0,
			"byteLength":25344,
			"byteOffset":25344,
			"target":34962
		},
		{
			"buffer":0,
			"byteLength":16896,
			"byteOffset":50688,
			"target":34962
		},
		{
			"buffer":0,
			"byteLength":6336,
			"byteOffset":67584,
			"target":34963
		},
		{
			"buffer":0,
			"byteLength":53628,
			"byteOffset":73920,
			"target":34962
		},
		{
			"buffer":0,
			"byteLength":53628,
			"byteOffset":127548,
			"target":34962
		},
		{
			"buffer":0,
			"byteLength":35752,
			"byteOffset":181176,
			"target":34962
		},
		{
			"buffer":0,
			"byteLength":13824,
			"byteOffset":216928,
			"target":34963
		},
		{
			"buffer":0,
			"byteLength":6768,
			"byteOffset":230752,
			"target":34962
		},
		{
			"buffer":0,
			"byteLength":6768,
			"byteOffset":237520,
			"target":34962
		},
		{
			"buffer":0,
			"byteLength":4512,
			"byteOffset":244288,
			"target":34962
		},
		{
			"buffer":0,
			"byteLength":1872,
			"byteOffset":248800,
			"target":34963
		},
		{
			"buffer":0,
			"byteLength":6816,
			"byteOffset":250672,
			"target":34962
		},
		{
			"buffer":0,
			"byteLength":6816,
			"byteOffset":257488,
			"target":34962
		},
		{
			"buffer":0,
			"byteLength":4544,
			"byteOffset":264304,
			"target":34962
		},
		{
			"buffer":0,
			"byteLength":1536,
			"byteOffset":268848,
			"target":34963
		}
	],
	"buffers":[
		{
			"byteLength":270384,
			"uri":"cf104_door_accessories.bin"
		}
	]
}
