{
	"asset":{
		"generator":"Khronos glTF Blender I/O v4.5.48",
		"version":"2.0"
	},
	"scene":0,
	"scenes":[
		{
			"name":"Scene",
			"nodes":[
				11
			]
		}
	],
	"nodes":[
		{
			"mesh":0,
			"name":"can_glass"
		},
		{
			"mesh":1,
			"name":"back",
			"translation":[
				0,
				-2.42464542388916,
				-1.4541336297988892
			]
		},
		{
			"mesh":2,
			"name":"console",
			"translation":[
				0,
				2.062485694885254,
				-1.4541336297988892
			]
		},
		{
			"mesh":3,
			"name":"joystick",
			"rotation":[
				0.1549355387687683,
				0,
				0,
				0.9879246950149536
			],
			"scale":[
				1.2716500759124756,
				1.2716501951217651,
				1.2716501951217651
			],
			"translation":[
				0.004045724868774414,
				0.5056626200675964,
				-1.7769677639007568
			]
		},
		{
			"mesh":4,
			"name":"seat",
			"translation":[
				0,
				-0.7367945909500122,
				-1.4541336297988892
			]
		},
		{
			"mesh":5,
			"name":"throatle",
			"rotation":[
				0.5193636417388916,
				0,
				0,
				0.8545534610748291
			],
			"scale":[
				1.2716500759124756,
				1.2716501951217651,
				1.2716501951217651
			],
			"translation":[
				-0.3804253339767456,
				0.2708113491535187,
				-0.9076950550079346
			]
		},
		{
			"children":[
				1,
				2,
				3,
				4,
				5
			],
			"mesh":6,
			"name":"cock",
			"translation":[
				0,
				0,
				0.0027964115142822266
			]
		},
		{
			"mesh":7,
			"name":"door_glass"
		},
		{
			"children":[
				7
			],
			"mesh":8,
			"name":"door_metal",
			"translation":[
				-0.5362579822540283,
				0,
				-0.4400066137313843
			]
		},
		{
			"children":[
				0,
				6,
				8
			],
			"mesh":9,
			"name":"can_metal",
			"translation":[
				0,
				-0.4619010090827942,
				1.4541300535202026
			]
		},
		{
			"mesh":10,
			"name":"fuel_tanks",
			"translation":[
				-7.403514862060547,
				-6.743416786193848,
				-0.3721950650215149
			]
		},
		{
			"children":[
				9,
				10
			],
			"mesh":11,
			"name":"CF104"
		}
	],
	"materials":[
		{
			"alphaMode":"BLEND",
			"doubleSided":true,
			"name":"Material.001",
			"pbrMetallicRoughness":{
				"baseColorFactor":[
					0.04247855022549629,
					0.7153486013412476,
					0.8001648187637329,
					0.25
				],
				"metallicFactor":0.10000000149011612,
				"roughnessFactor":0
			}
		},
		{
			"doubleSided":true,
			"name":"Material",
			"pbrMetallicRoughness":{
				"baseColorFactor":[
					0,
					0,
					0,
					1
				],
				"metallicFactor":0,
				"roughnessFactor":0.5
			}
		},
		{
			"doubleSided":true,
			"name":"Material.002",
			"pbrMetallicRoughness":{
				"baseColorFactor":[
					0.20250332355499268,
					0.20250332355499268,
					0.20250332355499268,
					1
				],
				"metallicFactor":0,
				"roughnessFactor":0.5
			}
		},
		{
			"doubleSided":true,
			"name":"Material.003",
			"pbrMetallicRoughness":{
				"baseColorFactor":[
					0.8002276420593262,
					0.01155197061598301,
					0,
					1
				],
				"metallicFactor":0,
				"roughnessFactor":0.5
			}
		},
		{
			"doubleSided":true,
			"name":"Material.004",
			"pbrMetallicRoughness":{
				"baseColorFactor":[
					0.20250332355499268,
					0.20250332355499268,
					0.20250332355499268,
					1
				],
				"metallicFactor":0,
				"roughnessFactor":0.5
			}
		},
		{
			"doubleSided":true,
			"name":"Material.005",
			"pbrMetallicRoughness":{
				"baseColorFactor":[
					0.20250332355499268,
					0.20250332355499268,
					0.20250332355499268,
					1
				],
				"metallicFactor":0,
				"roughnessFactor":0.5
			}
		}
	],
	"meshes":[
		{
			"name":"Mesh",
			"primitives":[
				{
					"attributes":{
						"POSITION":0,
						"NORMAL":1,
						"TEXCOORD_0":2
					},
					"indices":3,
					"material":0
				}
			]
		},
		{
			"name":"seat_back",
			"primitives":[
				{
					"attributes":{
						"POSITION":4,
						"NORMAL":5,
						"TEXCOORD_0":6
					},
					"indices":7,
					"material":1
				}
			]
		},
		{
			"name":"console",
			"primitives":[
				{
					"attributes":{
						"POSITION":8,
						"NORMAL":9,
						"TEXCOORD_0":10
					},
					"indices":11,
					"material":1
				}
			]
		},
		{
			"name":"joystick",
			"primitives":[
				{
					"attributes":{
						"POSITION":12,
						"NORMAL":13,
						"TEXCOORD_0":14
					},
					"indices":15,
					"material":2
				}
			]
		},
		{
			"name":"seat",
			"primitives":[
				{
					"attributes":{
						"POSITION":16,
						"NORMAL":17,
						"TEXCOORD_0":18
					},
					"indices":19,
					"material":3
				}
			]
		},
		{
			"name":"throttle",
			"primitives":[
				{
					"attributes":{
						"POSITION":20,
						"NORMAL":21,
						"TEXCOORD_0":22
					},
					"indices":23,
					"material":4
				}
			]
		},
		{
			"name":"cockpit_shell",
			"primitives":[
				{
					"attributes":{
						"POSITION":24,
						"NORMAL":25,
						"TEXCOORD_0":26
					},
					"indices":27,
					"material":2
				}
			]
		},
		{
			"name":"Mesh",
			"primitives":[
				{
					"attributes":{
						"POSITION":28,
						"NORMAL":29,
						"TEXCOORD_0":30
					},
					"indices":31,
					"material":0
				}
			]
		},
		{
			"name":"canopy_door_metal",
			"primitives":[
				{
					"attributes":{
						"POSITION":32,
						"NORMAL":33,
						"TEXCOORD_0":34
					},
					"indices":35,
					"material":2
				}
			]
		},
		{
			"name":"canopy_metal",
			"primitives":[
				{
					"attributes":{
						"POSITION":36,
						"NORMAL":37,
						"TEXCOORD_0":38
					},
					"indices":39,
					"material":2
				}
			]
		},
		{
			"name":"fuel_tank_1",
			"primitives":[
				{
					"attributes":{
						"POSITION":40,
						"NORMAL":41,
						"TEXCOORD_0":42
					},
					"indices":43,
					"material":5
				}
			]
		},
		{
			"name":"body",
			"primitives":[
				{
					"attributes":{
						"POSITION":44,
						"NORMAL":45,
						"TEXCOORD_0":46
					},
					"indices":47,
					"material":2
				}
			]
		}
	],
	"accessors":[
		{
			"bufferView":0,
			"componentType":5126,
			"count":6112,
			"max":[
				0.5668081045150757,
				2.0163028240203857,
				0.37693899869918823
			],
			"min":[
				-0.5668080449104309,
				-2.5929059982299805,
				-0.5144325494766235
			],
			"type":"VEC3"
		},
		{
			"bufferView":1,
			"componentType":5126,
			"count":6112,
			"type":"VEC3"
		},
		{
			"bufferView":2,
			"componentType":5126,
			"count":6112,
			"type":"VEC2"
		},
		{
			"bufferView":3,
			"componentType":5123,
			"count":10512,
			"type":"SCALAR"
		},
		{
			"bufferView":4,
			"componentType":5126,
			"count":48,
			"max":[
				0.725551962852478,
				1.3206568956375122,
				1.3337173461914062
			],
			"min":[
				-0.725551962852478,
				-1,
				-0.928307831287384
			],
			"type":"VEC3"
		},
		{
			"bufferView":5,
			"componentType":5126,
			"count":48,
			"type":"VEC3"
		},
		{
			"bufferView":6,
			"componentType":5126,
			"count":48,
			"type":"VEC2"
		},
		{
			"bufferView":7,
			"componentType":5123,
			"count":84,
			"type":"SCALAR"
		},
		{
			"bufferView":8,
			"componentType":5126,
			"count":446,
			"max":[
				0.4795488119125366,
				0,
				1.1885813474655151
			],
			"min":[
				-0.4795488119125366,
				-3.044969081878662,
				-0.36731964349746704
			],
			"type":"VEC3"
		},
		{
			"bufferView":9,
			"componentType":5126,
			"count":446,
			"type":"VEC3"
		},
		{
			"bufferView":10,
			"componentType":5126,
			"count":446,
			"type":"VEC2"
		},
		{
			"bufferView":11,
			"componentType":5123,
			"count":888,
			"type":"SCALAR"
		},
		{
			"bufferView":12,
			"componentType":5126,
			"count":568,
			"max":[
				0.047457993030548096,
				0.05080358684062958,
				0.8141542077064514
			],
			"min":[
				-0.04745759069919586,
				-0.06710463017225266,
				-0.04745817184448242
			],
			"type":"VEC3"
		},
		{
			"bufferView":13,
			"componentType":5126,
			"count":568,
			"type":"VEC3"
		},
		{
			"bufferView":14,
			"componentType":5126,
			"count":568,
			"type":"VEC2"
		},
		{
			"bufferView":15,
			"componentType":5123,
			"count":1008,
			"type":"SCALAR"
		},
		{
			"bufferView":16,
			"componentType":5126,
			"count":64,
			"max":[
				0.43599891662597656,
				0.8036403059959412,
				1.5454546213150024
			],
			"min":[
				-0.43599891662597656,
				-0.4439283013343811,
				0
			],
			"type":"VEC3"
		},
		{
			"bufferView":17,
			"componentType":5126,
			"count":64,
			"type":"VEC3"
		},
		{
			"bufferView":18,
			"componentType":5126,
			"count":64,
			"type":"VEC2"
		},
		{
			"bufferView":19,
			"componentType":5123,
			"count":114,
			"type":"SCALAR"
		},
		{
			"bufferView":20,
			"componentType":5126,
			"count":216,
			"max":[
				0.024298522621393204,
				0.033421725034713745,
				0.14712530374526978
			],
			"min":[
				-0.024298518896102905,
				-0.021782487630844116,
				-0.006959736347198486
			],
			"type":"VEC3"
		},
		{
			"bufferView":21,
			"componentType":5126,
			"count":216,
			"type":"VEC3"
		},
		{
			"bufferView":22,
			"componentType":5126,
			"count":216,
			"type":"VEC2"
		},
		{
			"bufferView":23,
			"componentType":5123,
			"count":354,
			"type":"SCALAR"
		},
		{
			"bufferView":24,
			"componentType":5126,
			"count":77,
			"max":[
				0.5965068340301514,
				2.0547266006469727,
				0.002624988555908203
			],
			"min":[
				-0.5965068340301514,
				-3.2534146308898926,
				-1.7975200414657593
			],
			"type":"VEC3"
		},
		{
			"bufferView":25,
			"componentType":5126,
			"count":77,
			"type":"VEC3"
		},
		{
			"bufferView":26,
			"componentType":5126,
			"count":77,
			"type":"VEC2"
		},
		{
			"bufferView":27,
			"componentType":5123,
			"count":156,
			"type":"SCALAR"
		},
		{
			"bufferView":28,
			"componentType":5126,
			"count":2112,
			"max":[
				1.076537013053894,
				1.010233759880066,
				0.7984813451766968
			],
			"min":[
				-0.03152129426598549,
				-0.9304742217063904,
				-0.050413139164447784
			],
			"type":"VEC3"
		},
		{
			"bufferView":29,
			"componentType":5126,
			"count":2112,
			"type":"VEC3"
		},
		{
			"bufferView":30,
			"componentType":5126,
			"count":2112,
			"type":"VEC2"
		},
		{
			"bufferView":31,
			"componentType":5123,
			"count":3168,
			"type":"SCALAR"
		},
		{
			"bufferView":32,
			"componentType":5126,
			"count":568,
			"max":[
				1.1172884702682495,
				1.1202447414398193,
				0.8401592969894409
			],
			"min":[
				-0.0722728818655014,
				-1.0382914543151855,
				-0.08377103507518768
			],
			"type":"VEC3"
		},
		{
			"bufferView":33,
			"componentType":5126,
			"count":568,
			"type":"VEC3"
		},
		{
			"bufferView":34,
			"componentType":5126,
			"count":568,
			"type":"VEC2"
		},
		{
			"bufferView":35,
			"componentType":5123,
			"count":768,
			"type":"SCALAR"
		},
		{
			"bufferView":36,
			"componentType":5126,
			"count":1460,
			"max":[
				0.6083055734634399,
				2.0595741271972656,
				0.3952932059764862
			],
			"min":[
				-0.6083055734634399,
				-3.257377862930298,
				-0.5527548789978027
			],
			"type":"VEC3"
		},
		{
			"bufferView":37,
			"componentType":5126,
			"count":1460,
			"type":"VEC3"
		},
		{
			"bufferView":38,
			"componentType":5126,
			"count":1460,
			"type":"VEC2"
		},
		{
			"bufferView":39,
			"componentType":5123,
			"count":1956,
			"type":"SCALAR"
		},
		{
			"bufferView":40,
			"componentType":5126,
			"count":644,
			"max":[
				0.6799214482307434,
				4.18216609954834,
				0.6779918670654297
			],
			"min":[
				-0.6925230622291565,
				-3.592275619506836,
				-0.6944530606269836
			],
			"type":"VEC3"
		},
		{
			"bufferView":41,
			"componentType":5126,
			"count":644,
			"type":"VEC3"
		},
		{
			"bufferView":42,
			"componentType":5126,
			"count":644,
			"type":"VEC2"
		},
		{
			"bufferView":43,
			"componentType":5123,
			"count":852,
			"type":"SCALAR"
		},
		{
			"bufferView":44,
			"componentType":5126,
			"count":2731,
			"max":[
				7.096695423126221,
				5.082744121551514,
				3.5867514610290527
			],
			"min":[
				-7.096695423126221,
				-17.877952575683594,
				-1.238985538482666
			],
			"type":"VEC3"
		},
		{
			"bufferView":45,
			"componentType":5126,
			"count":2731,
			"type":"VEC3"
		},
		{
			"bufferView":46,
			"componentType":5126,
			"count":2731,
			"type":"VEC2"
		},
		{
			"bufferView":47,
			"componentType":5123,
			"count":4764,
			"type":"SCALAR"
		}
	],
	"bufferViews":[
		{
			"buffer":0,
			"byteLength":73344,
			"byteOffset":0,
			"target":34962
		},
		{
			"buffer":0,
			"byteLength":73344,
			"byteOffset":73344,
			"target":34962
		},
		{
			"buffer":0,
			"byteLength":48896,
			"byteOffset":146688,
			"target":34962
		},
		{
			"buffer":0,
			"byteLength":21024,
			"byteOffset":195584,
			"target":34963
		},
		{
			"buffer":0,
			"byteLength":576,
			"byteOffset":216608,
			"target":34962
		},
		{
			"buffer":0,
			"byteLength":576,
			"byteOffset":217184,
			"target":34962
		},
		{
			"buffer":0,
			"byteLength":384,
			"byteOffset":217760,
			"target":34962
		},
		{
			"buffer":0,
			"byteLength":168,
			"byteOffset":218144,
			"target":34963
		},
		{
			"buffer":0,
			"byteLength":5352,
			"byteOffset":218312,
			"target":34962
		},
		{
			"buffer":0,
			"byteLength":5352,
			"byteOffset":223664,
			"target":34962
		},
		{
			"buffer":0,
			"byteLength":3568,
			"byteOffset":229016,
			"target":34962
		},
		{
			"buffer":0,
			"byteLength":1776,
			"byteOffset":232584,
			"target":34963
		},
		{
			"buffer":0,
			"byteLength":6816,
			"byteOffset":234360,
			"target":34962
		},
		{
			"buffer":0,
			"byteLength":6816,
			"byteOffset":241176,
			"target":34962
		},
		{
			"buffer":0,
			"byteLength":4544,
			"byteOffset":247992,
			"target":34962
		},
		{
			"buffer":0,
			"byteLength":2016,
			"byteOffset":252536,
			"target":34963
		},
		{
			"buffer":0,
			"byteLength":768,
			"byteOffset":254552,
			"target":34962
		},
		{
			"buffer":0,
			"byteLength":768,
			"byteOffset":255320,
			"target":34962
		},
		{
			"buffer":0,
			"byteLength":512,
			"byteOffset":256088,
			"target":34962
		},
		{
			"buffer":0,
			"byteLength":228,
			"byteOffset":256600,
			"target":34963
		},
		{
			"buffer":0,
			"byteLength":2592,
			"byteOffset":256828,
			"target":34962
		},
		{
			"buffer":0,
			"byteLength":2592,
			"byteOffset":259420,
			"target":34962
		},
		{
			"buffer":0,
			"byteLength":1728,
			"byteOffset":262012,
			"target":34962
		},
		{
			"buffer":0,
			"byteLength":708,
			"byteOffset":263740,
			"target":34963
		},
		{
			"buffer":0,
			"byteLength":924,
			"byteOffset":264448,
			"target":34962
		},
		{
			"buffer":0,
			"byteLength":924,
			"byteOffset":265372,
			"target":34962
		},
		{
			"buffer":0,
			"byteLength":616,
			"byteOffset":266296,
			"target":34962
		},
		{
			"buffer":0,
			"byteLength":312,
			"byteOffset":266912,
			"target":34963
		},
		{
			"buffer":0,
			"byteLength":25344,
			"byteOffset":267224,
			"target":34962
		},
		{
			"buffer":0,
			"byteLength":25344,
			"byteOffset":292568,
			"target":34962
		},
		{
			"buffer":0,
			"byteLength":16896,
			"byteOffset":317912,
			"target":34962
		},
		{
			"buffer":0,
			"byteLength":6336,
			"byteOffset":334808,
			"target":34963
		},
		{
			"buffer":0,
			"byteLength":6816,
			"byteOffset":341144,
			"target":34962
		},
		{
			"buffer":0,
			"byteLength":6816,
			"byteOffset":347960,
			"target":34962
		},
		{
			"buffer":0,
			"byteLength":4544,
			"byteOffset":354776,
			"target":34962
		},
		{
			"buffer":0,
			"byteLength":1536,
			"byteOffset":359320,
			"target":34963
		},
		{
			"buffer":0,
			"byteLength":17520,
			"byteOffset":360856,
			"target":34962
		},
		{
			"buffer":0,
			"byteLength":17520,
			"byteOffset":378376,
			"target":34962
		},
		{
			"buffer":0,
			"byteLength":11680,
			"byteOffset":395896,
			"target":34962
		},
		{
			"buffer":0,
			"byteLength":3912,
			"byteOffset":407576,
			"target":34963
		},
		{
			"buffer":0,
			"byteLength":7728,
			"byteOffset":411488,
			"target":34962
		},
		{
			"buffer":0,
			"byteLength":7728,
			"byteOffset":419216,
			"target":34962
		},
		{
			"buffer":0,
			"byteLength":5152,
			"byteOffset":426944,
			"target":34962
		},
		{
			"buffer":0,
			"byteLength":1704,
			"byteOffset":432096,
			"target":34963
		},
		{
			"buffer":0,
			"byteLength":32772,
			"byteOffset":433800,
			"target":34962
		},
		{
			"buffer":0,
			"byteLength":32772,
			"byteOffset":466572,
			"target":34962
		},
		{
			"buffer":0,
			"byteLength":21848,
			"byteOffset":499344,
			"target":34962
		},
		{
			"buffer":0,
			"byteLength":9528,
			"byteOffset":521192,
			"target":34963
		}
	],
	"buffers":[
		{
			"byteLength":530720,
			"uri":"meshes.bin"
		}
	]
}
