{
	"asset":{
		"generator":"Khronos glTF Blender I/O v4.5.48",
		"version":"2.0"
	},
	"scene":0,
	"scenes":[
		{
			"name":"Scene",
			"nodes":[
				0,
				1,
				2
			]
		}
	],
	"nodes":[
		{
			"mesh":0,
			"name":"runway"
		},
		{
			"mesh":1,
			"name":"taxi_way",
			"translation":[
				0,
				0,
				83.74634552001953
			]
		},
		{
			"mesh":2,
			"name":"hanger",
			"rotation":[
				0.7071068286895752,
				0,
				0,
				0.7071068286895752
			],
			"translation":[
				39.25777053833008,
				3.767467498779297,
				169.4016571044922
			]
		}
	],
	"meshes":[
		{
			"name":"Plane",
			"primitives":[
				{
					"attributes":{
						"POSITION":0,
						"NORMAL":1,
						"TEXCOORD_0":2
					},
					"indices":3
				}
			]
		},
		{
			"name":"Plane.001",
			"primitives":[
				{
					"attributes":{
						"POSITION":4,
						"NORMAL":5,
						"TEXCOORD_0":6
					},
					"indices":7
				}
			]
		},
		{
			"name":"Cylinder",
			"primitives":[
				{
					"attributes":{
						"POSITION":8,
						"NORMAL":9,
						"TEXCOORD_0":10
					},
					"indices":11
				}
			]
		}
	],
	"accessors":[
		{
			"bufferView":0,
			"componentType":5126,
			"count":20,
			"max":[
				16.225271224975586,
				1,
				80.3616943359375
			],
			"min":[
				-16.225271224975586,
				0,
				-3000
			],
			"type":"VEC3"
		},
		{
			"bufferView":1,
			"componentType":5126,
			"count":20,
			"type":"VEC3"
		},
		{
			"bufferView":2,
			"componentType":5126,
			"count":20,
			"type":"VEC2"
		},
		{
			"bufferView":3,
			"componentType":5123,
			"count":30,
			"type":"SCALAR"
		},
		{
			"bufferView":4,
			"componentType":5126,
			"count":146,
			"max":[
				287.7474365234375,
				0.949999988079071,
				215.90274047851562
			],
			"min":[
				-147.3350067138672,
				0,
				-3214.22607421875
			],
			"type":"VEC3"
		},
		{
			"bufferView":5,
			"componentType":5126,
			"count":146,
			"type":"VEC3"
		},
		{
			"bufferView":6,
			"componentType":5126,
			"count":146,
			"type":"VEC2"
		},
		{
			"bufferView":7,
			"componentType":5123,
			"count":294,
			"type":"SCALAR"
		},
		{
			"bufferView":8,
			"componentType":5126,
			"count":358,
			"max":[
				11.000455856323242,
				20.781482696533203,
				3.729501485824585
			],
			"min":[
				-11.000532150268555,
				-20.782459259033203,
				-7.270992279052734
			],
			"type":"VEC3"
		},
		{
			"bufferView":9,
			"componentType":5126,
			"count":358,
			"type":"VEC3"
		},
		{
			"bufferView":10,
			"componentType":5126,
			"count":358,
			"type":"VEC2"
		},
		{
			"bufferView":11,
			"componentType":5123,
			"count":624,
			"type":"SCALAR"
		}
	],
	"bufferViews":[
		{
			"buffer":0,
			"byteLength":240,
			"byteOffset":0,
			"target":34962
		},
		{
			"buffer":0,
			"byteLength":240,
			"byteOffset":240,
			"target":34962
		},
		{
			"buffer":0,
			"byteLength":160,
			"byteOffset":480,
			"target":34962
		},
		{
			"buffer":0,
			"byteLength":60,
			"byteOffset":640,
			"target":34963
		},
		{
			"buffer":0,
			"byteLength":1752,
			"byteOffset":700,
			"target":34962
		},
		{
			"buffer":0,
			"byteLength":1752,
			"byteOffset":2452,
			"target":34962
		},
		{
			"buffer":0,
			"byteLength":1168,
			"byteOffset":4204,
			"target":34962
		},
		{
			"buffer":0,
			"byteLength":588,
			"byteOffset":5372,
			"target":34963
		},
		{
			"buffer":0,
			"byteLength":4296,
			"byteOffset":5960,
			"target":34962
		},
		{
			"buffer":0,
			"byteLength":4296,
			"byteOffset":10256,
			"target":34962
		},
		{
			"buffer":0,
			"byteLength":2864,
			"byteOffset":14552,
			"target":34962
		},
		{
			"buffer":0,
			"byteLength":1248,
			"byteOffset":17416,
			"target":34963
		}
	],
	"buffers":[
		{
			"byteLength":18664,
			"uri":"assets.bin"
		}
	]
}
